<svg xmlns="http://www.w3.org/2000/svg" id="Layer_1" data-name="Layer 1" viewBox="0 0 827.52 162.92">
  <path fill="#fff" d="M78.41,47.06l-31.54,62.94c-2.18,4.35.98,9.48,5.85,9.48h83.35c3.62,0,6.55,2.93,6.55,6.55v30.34c0,3.62-2.93,6.55-6.55,6.55H40.56c-3.62,0-6.55-2.93-6.55-6.55v-24.91c0-3.62-2.93-6.55-6.55-6.55H6.56c-4.87,0-8.03-5.13-5.85-9.48L37.68,41.63c1.11-2.22,3.38-3.61,5.85-3.61h27.42c3.62,0,6.55-2.93,6.55-6.55V6.55c0-3.62,2.93-6.55,6.55-6.55h52.07c3.62,0,6.55,2.93,6.55,6.55v30.35c0,3.62-2.93,6.55-6.55,6.55h-51.86c-2.48,0-4.74,1.4-5.85,3.61Z"/>
  <g>
    <path fill="#fff" d="M190.68,81.46c0-23.97,14.38-42.57,38.69-42.57,19.06,0,30.58,10.96,32.75,26.02h-10.04c-1.94-10.16-10.04-17.12-22.94-17.12-17.92,0-27.96,14.49-27.96,33.67s11.07,33.44,28.07,33.44c15.41,0,22.71-10.5,23.74-22.48h10.16c-.11,8.1-3.99,17.23-9.81,22.94-5.71,5.59-14.04,8.56-24.42,8.56-23.17,0-38.23-17.69-38.23-42.45Z"/>
    <path fill="#fff" d="M267.72,92.87c0-17.12,10.96-31.04,28.53-31.04s28.42,13.92,28.42,31.04-10.73,31.04-28.42,31.04-28.53-13.92-28.53-31.04ZM315.19,92.87c0-13.01-6.39-23.39-18.94-23.39s-19.06,10.38-19.06,23.39,6.51,23.28,19.06,23.28,18.94-10.27,18.94-23.28Z"/>
    <path fill="#fff" d="M340.87,71.07h.23c4.22-5.59,10.16-9.13,18.72-9.13,12.33,0,19.86,6.73,19.86,18.95v41.43h-9.24v-40.63c0-7.65-5.02-11.98-13.35-11.98-9.36,0-16.21,6.62-16.21,16.32v36.29h-9.24v-59h9.24v7.76Z"/>
    <path fill="#fff" d="M385.84,103.14h9.47c1.26,10.27,8.1,13.12,16.89,13.12,9.7,0,13.69-4.22,13.69-9.7,0-6.62-4.57-8.33-15.41-10.61-11.64-2.4-22.03-4.79-22.03-17.69,0-9.81,7.53-16.21,21.23-16.21,14.61,0,21.8,6.96,23.17,18.49h-9.47c-.91-7.76-5.14-11.18-13.92-11.18s-11.87,3.77-11.87,8.45c0,6.39,5.71,7.65,15.86,9.7,11.87,2.4,21.8,5.02,21.8,18.6,0,11.87-9.7,17.92-23.28,17.92-16.21,0-25.22-7.65-26.13-20.88Z"/>
    <path fill="#fff" d="M439.71,92.87c0-17.12,10.96-31.04,28.53-31.04,13.92,0,23.17,7.99,25.22,20.54h-9.36c-1.37-7.99-6.96-12.9-15.86-12.9-12.55,0-19.06,10.38-19.06,23.39s6.51,23.28,19.06,23.28c9.59,0,15.29-5.48,16.09-14.61h9.13c-1.26,14.15-10.5,22.37-25.22,22.37-17.58,0-28.53-13.92-28.53-31.04Z"/>
    <path fill="#fff" d="M499.97,40.72h9.24v11.41h-9.24v-11.41ZM499.97,63.31h9.24v59h-9.24v-59Z"/>
    <path fill="#fff" d="M516.18,92.87c0-17.12,10.96-31.04,28.53-31.04s28.42,13.92,28.42,31.04-10.73,31.04-28.42,31.04-28.53-13.92-28.53-31.04ZM563.65,92.87c0-13.01-6.39-23.39-18.94-23.39s-19.06,10.38-19.06,23.39,6.51,23.28,19.06,23.28,18.94-10.27,18.94-23.28Z"/>
    <path fill="#fff" d="M617.64,122.31v-8.1h-.23c-4.22,5.71-9.24,9.47-17.8,9.47-12.1,0-19.86-7.3-19.86-19.51v-40.86h9.24v40.63c0,7.65,4.91,12.1,13.24,12.1,9.36,0,15.41-7.08,15.41-16.43v-36.29h9.24v59h-9.24Z"/>
    <path fill="#fff" d="M632.39,103.14h9.47c1.26,10.27,8.1,13.12,16.89,13.12,9.7,0,13.69-4.22,13.69-9.7,0-6.62-4.57-8.33-15.41-10.61-11.64-2.4-22.03-4.79-22.03-17.69,0-9.81,7.53-16.21,21.23-16.21,14.61,0,21.8,6.96,23.17,18.49h-9.47c-.91-7.76-5.14-11.18-13.92-11.18s-11.87,3.77-11.87,8.45c0,6.39,5.71,7.65,15.86,9.7,11.87,2.4,21.8,5.02,21.8,18.6,0,11.87-9.7,17.92-23.28,17.92-16.21,0-25.22-7.65-26.13-20.88Z"/>
    <path fill="#fff" d="M685.66,103.14h9.47c1.26,10.27,8.1,13.12,16.89,13.12,9.7,0,13.69-4.22,13.69-9.7,0-6.62-4.57-8.33-15.41-10.61-11.64-2.4-22.03-4.79-22.03-17.69,0-9.81,7.53-16.21,21.23-16.21,14.61,0,21.8,6.96,23.17,18.49h-9.47c-.91-7.76-5.14-11.18-13.92-11.18s-11.87,3.77-11.87,8.45c0,6.39,5.71,7.65,15.86,9.7,11.87,2.4,21.8,5.02,21.8,18.6,0,11.87-9.7,17.92-23.28,17.92-16.21,0-25.22-7.65-26.13-20.88Z"/>
    <path fill="#fff" d="M768.86,40.72h11.53l30.13,81.6h-11.18l-8.67-24.88h-32.52l-8.79,24.88h-10.5l30.01-81.6ZM761.1,89.1h26.71l-9.36-27.39c-1.6-4.56-3.65-11.53-3.65-11.53h-.23s-2.17,6.85-3.77,11.53l-9.7,27.39Z"/>
    <path fill="#fff" d="M817.25,40.72h10.27v81.6h-10.27V40.72Z"/>
  </g>
</svg>
